<?xml version="1.0" encoding="utf-8"?>
<svg width="36px" height="36px" fill="none" preserveAspectRatio="xMidYMid slice" xmlns="http://www.w3.org/2000/svg">
  <path d="M 18 0.04 C 8.1 0.04 0 8.154 0 18.148 C 0 27.185 6.588 34.685 15.192 36.04 L 15.192 23.389 L 10.62 23.389 L 10.62 18.148 L 15.192 18.148 L 15.192 14.154 C 15.192 9.618 17.874 7.124 21.996 7.124 C 23.958 7.124 26.01 7.468 26.01 7.468 L 26.01 11.932 L 23.742 11.932 C 21.51 11.932 20.808 13.323 20.808 14.751 L 20.808 18.148 L 25.812 18.148 L 25.002 23.389 L 20.808 23.389 L 20.808 36.04 C 25.049 35.368 28.912 33.195 31.698 29.913 C 34.484 26.633 36.01 22.46 36 18.148 C 36 8.154 27.9 0.04 18 0.04 Z" style="fill: rgb(4, 118, 69);"/>
</svg>