<?xml version="1.0" encoding="utf-8"?>
<svg width="18" height="18" fill="none" xmlns="http://www.w3.org/2000/svg">
  <path d="M 0 0 L 20 0 L 20 20 L 0 20 L 0 0 Z M 5.256 16.711 C 5.7 17.656 6.578 18.433 8.078 18.433 C 9.744 18.433 10.889 17.544 10.889 15.6 L 10.889 9.178 L 9 9.178 L 9 15.556 C 9 16.511 8.611 16.756 8 16.756 C 7.356 16.756 7.089 16.311 6.789 15.789 L 5.256 16.711 Z M 11.9 16.511 C 12.456 17.6 13.578 18.433 15.333 18.433 C 17.111 18.433 18.444 17.511 18.444 15.811 C 18.444 14.244 17.544 13.544 15.944 12.856 L 15.478 12.656 C 14.667 12.311 14.322 12.078 14.322 11.522 C 14.322 11.067 14.667 10.711 15.222 10.711 C 15.756 10.711 16.111 10.944 16.433 11.522 L 17.889 10.556 C 17.278 9.489 16.411 9.078 15.222 9.078 C 13.544 9.078 12.467 10.144 12.467 11.556 C 12.467 13.089 13.367 13.811 14.722 14.389 L 15.189 14.589 C 16.056 14.967 16.567 15.2 16.567 15.844 C 16.567 16.378 16.067 16.767 15.289 16.767 C 14.367 16.767 13.833 16.289 13.433 15.622 L 11.9 16.511 Z" fill="#EABA0F"/>
</svg>