<?xml version="1.0" encoding="utf-8"?>
<svg width="48" height="47" xmlns="http://www.w3.org/2000/svg">
  <path fill="#2861D3" fill-rule="evenodd" d="M 0 0 L 48 0 L 48 48 L 0 48 L 0 0 Z M 33.12 19.289 C 31.397 19.289 30.807 20.187 30.807 20.928 C 30.807 21.735 31.2 22.296 33.513 23.529 C 36.939 25.233 38.007 26.871 38.007 29.271 C 38.007 32.859 35.345 34.788 31.745 34.788 C 29.847 34.788 28.212 34.385 27.273 33.825 C 27.12 33.759 27.099 33.645 27.099 33.465 L 27.099 30.168 C 27.099 29.945 27.209 29.877 27.36 29.988 C 28.665 30.852 30.189 31.313 31.745 31.313 C 33.468 31.313 34.188 30.571 34.188 29.563 C 34.188 28.757 33.687 28.037 31.483 26.871 C 28.385 25.347 27.099 23.799 27.099 21.219 C 27.099 18.324 29.301 15.924 33.12 15.924 C 34.997 15.924 36.305 16.217 37.025 16.553 C 37.2 16.665 37.243 16.845 37.243 17.001 L 37.243 20.073 C 37.243 20.253 37.133 20.367 36.917 20.299 C 35.957 19.671 34.539 19.289 33.12 19.289 Z M 14.357 21.957 C 14.859 22.003 15.252 22.003 16.123 22.003 C 18.677 22.003 21.077 21.084 21.077 17.517 C 21.077 14.669 19.353 13.233 16.452 13.233 C 15.579 13.233 14.748 13.279 14.357 13.301 L 14.357 21.957 Z M 10.473 10.049 C 10.473 9.893 10.779 9.78 10.953 9.78 C 12.348 9.713 14.421 9.667 16.581 9.667 C 22.625 9.667 24.981 13.077 24.981 17.429 C 24.981 23.124 20.967 25.569 16.037 25.569 C 15.207 25.569 14.923 25.524 14.335 25.524 L 14.335 34.137 C 14.335 34.317 14.268 34.409 14.073 34.409 L 10.735 34.409 C 10.56 34.409 10.473 34.341 10.473 34.137 L 10.473 10.049 Z"/>
</svg>