<?xml version="1.0" encoding="utf-8"?>
<svg width="36px" height="36px" version="1.1" preserveAspectRatio="none" xmlns="http://www.w3.org/2000/svg">
  <g transform="matrix(1.8, 0, 0, 1.8, 0, 0)">
    <path d="M 10 0 C 4.477 0 0 4.477 0 10 L 0 10 C 0 15.523 4.477 20 10 20 L 10 20 C 15.523 20 20 15.523 20 10 L 20 10 C 20 4.477 15.523 0 10 0 L 10 0 Z" fill="#40B3E0"/>
    <path d="M 14.866 5.752 L 13.08 14.758 C 13.08 14.758 12.83 15.382 12.143 15.082 L 8.021 11.922 L 6.523 11.198 L 4 10.349 C 4 10.349 3.612 10.211 3.575 9.912 C 3.538 9.612 4.012 9.449 4.012 9.449 L 14.041 5.515 C 14.041 5.515 14.866 5.153 14.866 5.752" fill="#FFFFFF"/>
    <path d="M 7.705 14.657 C 7.705 14.657 7.584 14.645 7.434 14.171 C 7.284 13.696 6.523 11.198 6.523 11.198 L 12.58 7.351 C 12.58 7.351 12.93 7.139 12.917 7.351 C 12.917 7.351 12.98 7.389 12.793 7.563 C 12.605 7.738 8.034 11.848 8.034 11.848" fill="#D2E5F1"/>
    <path d="M 9.602 13.134 L 7.971 14.62 C 7.971 14.62 7.844 14.717 7.705 14.656 L 8.017 11.895" fill="#B5CFE4"/>
  </g>
</svg>