<?xml version="1.0" encoding="utf-8"?>
<svg version="1.1" id="Layer_1" x="0px" y="0px" style="enable-background:new 0 0 512 512;" width="36px" height="36px" preserveAspectRatio="xMidYMid slice" xmlns="http://www.w3.org/2000/svg">
  <g transform="matrix(1.799998, 0, 0, 1.800003, 0.012781, 0.012781)">
    <g transform="matrix(0.039059, 0, 0, 0.03906, -0.015352, -0.015352)">
      <path d="M255.9,124.6c-72.7,0-131.4,58.7-131.4,131.4s58.7,131.4,131.4,131.4S387.3,328.7,387.3,256S328.6,124.6,255.9,124.6z M255.9,341.4c-47,0-85.4-38.4-85.4-85.4c0-47,38.4-85.4,85.4-85.4s85.4,38.4,85.4,85.4C341.3,303,302.9,341.4,255.9,341.4z M392.7,88.7c-17,0-30.7,13.7-30.7,30.7s13.7,30.7,30.7,30.7s30.7-13.6,30.7-30.7C423.4,102.4,409.7,88.7,392.7,88.7L392.7,88.7z M512,256c0-35.4,0.3-70.4-1.7-105.7C508.3,109.3,499,73,469,43C439,13,402.7,3.7,361.7,1.7C326.3-0.3,291.3,0,256,0 c-35.4,0-70.4-0.3-105.7,1.7C109.3,3.7,73,13,43,43C13,73,3.7,109.3,1.7,150.3C-0.3,185.7,0,220.7,0,256c0,35.3-0.3,70.4,1.7,105.7 C3.7,402.7,13,439,43,469c30,30,66.3,39.3,107.3,41.3c35.4,2,70.4,1.7,105.7,1.7c35.4,0,70.4,0.3,105.7-1.7 c41-2,77.4-11.3,107.3-41.3c30-30,39.3-66.3,41.3-107.3C512.4,326.4,512,291.4,512,256z M455.6,407c-4.7,11.7-10.3,20.4-19.3,29.3 c-9,9-17.7,14.7-29.3,19.3c-33.7,13.4-113.7,10.4-151,10.4s-117.4,3-151.1-10.3c-11.7-4.7-20.4-10.3-29.3-19.3 c-9-9-14.7-17.7-19.3-29.3C42.9,373.3,45.9,293.3,45.9,256s-3-117.4,10.3-151.1c4.7-11.7,10.3-20.4,19.3-29.3 c9-9,17.7-14.7,29.3-19.3c33.7-13.3,113.7-10.3,151.1-10.3s117.4-3,151.1,10.3c11.7,4.7,20.4,10.3,29.3,19.3 c9,9,14.7,17.7,19.3,29.3C469,138.6,466,218.7,466,256S469,373.3,455.6,407z" style="fill: rgb(4, 118, 69);"/>
    </g>
  </g>
</svg>