<?xml version="1.0" encoding="utf-8"?>
<svg xmlns="http://www.w3.org/2000/svg" xmlns:bx="https://boxy-svg.com">
  <path fill-rule="evenodd" d="M 35.39 29.959 C 34.762 29.523 34.123 29.099 33.536 28.627 C 32.885 28.1 32.474 27.464 32.563 26.66 C 32.615 26.195 32.489 25.797 31.826 25.643 C 31.981 25.302 32.127 25.074 32.186 24.831 C 32.253 24.561 32.249 24.275 32.258 23.996 C 32.35 21.062 31.094 18.489 29.234 16.09 C 28.378 14.987 27.483 13.901 26.57 12.83 C 25.141 11.154 24.63 9.272 24.603 7.239 C 24.592 6.305 24.461 5.358 24.227 4.448 C 23.768 2.667 22.639 1.276 20.591 0.531 C 19.021 -0.042 17.396 -0.155 15.738 0.21 C 13.329 0.743 11.873 2.253 11.9 4.361 C 11.927 6.39 12.046 8.42 12.222 10.443 C 12.323 11.592 12.113 12.58 11.213 13.491 C 10.345 14.366 9.569 15.309 8.819 16.259 C 8.388 16.803 8.01 17.393 7.744 18.005 C 7.022 19.674 6.358 21.357 5.204 22.867 C 4.778 23.427 4.729 24.053 5.033 24.694 C 5.111 24.86 5.159 25.113 5.064 25.248 C 4.241 26.399 3.314 27.412 1.55 27.632 C 0.162 27.806 0.094 28.019 0.135 29.226 C 0.171 30.209 0.157 31.203 0.038 32.178 C -0.088 33.226 0.042 33.51 1.241 33.762 C 4.005 34.342 6.794 34.837 9.44 35.782 C 10.565 36.183 11.695 36.043 12.602 35.262 C 13.549 34.446 14.746 34.126 16.038 34.124 C 18.233 34.124 20.427 34.212 22.621 34.234 C 23.215 34.239 23.557 34.427 23.795 34.882 C 24.088 35.44 24.585 35.849 25.346 35.921 C 26.81 36.056 28.144 35.874 29.252 34.931 C 30.62 33.768 32.197 32.85 34.004 32.213 C 34.521 32.031 35.009 31.743 35.437 31.433 C 36.215 30.866 36.173 30.506 35.39 29.959 Z M 17.45 6.251 C 17.714 5.484 18.335 4.988 19.28 4.836 C 20.074 4.71 20.747 5.04 21.248 5.794 C 21.788 6.606 21.966 7.455 21.505 8.345 C 21.127 9.074 20.949 9.142 20.065 8.894 C 19.9 8.849 19.739 8.793 19.446 8.703 C 19.693 8.526 19.849 8.397 20.026 8.296 C 20.422 8.067 20.533 7.747 20.495 7.367 C 20.447 6.869 19.982 6.428 19.505 6.433 C 19.079 6.437 18.717 6.777 18.668 7.292 C 18.638 7.612 18.701 7.94 18.73 8.348 C 17.525 8.048 17.084 7.31 17.45 6.251 Z M 13 5.589 C 13.445 5.02 14.116 4.907 14.78 5.286 C 15.489 5.691 16.019 6.834 15.745 7.518 C 15.646 7.767 15.351 7.961 15.146 8.179 L 14.935 8.069 C 14.856 7.7 14.84 7.308 14.67 6.969 C 14.564 6.755 14.233 6.62 14.001 6.449 C 13.785 6.667 13.41 6.874 13.389 7.106 C 13.358 7.425 13.554 7.778 13.725 8.087 C 13.835 8.282 14.076 8.426 14.325 8.652 L 13.653 9.097 C 12.6 8.301 12.287 6.498 13 5.589 Z M 26.146 24.503 C 26.075 25.27 25.971 25.302 25.058 25.416 C 24.409 25.497 24.234 25.639 24.202 26.289 C 24.164 27.05 24.167 27.813 24.198 28.573 C 24.22 29.095 24.011 29.504 23.584 29.867 C 21.224 31.887 18.404 32.844 15.03 32.497 C 13.574 32.348 12.622 31.599 11.855 30.54 C 12.197 30.434 12.449 30.362 12.696 30.278 C 13.787 29.903 13.99 29.113 13.119 28.429 C 12.462 27.911 11.729 27.461 11.024 26.987 C 10.341 26.53 9.65 26.08 8.966 25.625 C 8.385 25.234 8.162 24.732 8.149 24.095 C 8.115 22.568 8.487 21.141 9.243 19.751 C 9.918 18.511 10.44 17.213 11.072 15.955 C 11.398 15.307 11.738 14.643 12.217 14.074 C 12.676 13.527 12.96 12.992 12.91 12.323 C 12.881 11.946 12.905 11.568 12.905 11.19 L 13.151 11.088 C 13.549 11.378 13.954 11.662 14.346 11.959 C 15.758 13.034 17.101 13.082 18.647 12.157 C 19.306 11.761 20.018 11.428 20.715 11.081 C 20.888 10.994 21.097 10.956 21.39 10.863 C 22.141 12.355 22.877 13.818 23.615 15.282 C 23.989 16.025 24.29 16.805 24.754 17.505 C 25.687 18.912 26.182 20.396 26.174 22.005 C 26.171 22.838 26.223 23.675 26.146 24.503 Z" clip-rule="evenodd" bx:origin="0.500026 0.499989"/>
</svg>