<?xml version="1.0" encoding="utf-8"?>
<svg version="1.1" id="Layer_1" x="0px" y="0px" style="enable-background:new 0 0 512 512;" width="36px" height="36px" preserveAspectRatio="xMidYMid slice" xmlns="http://www.w3.org/2000/svg">
  <g transform="matrix(2.174963, 0, 0, 2.174963, -3.749637, -3.749637)">
    <path style="fill:#55CD6C;" d="M 5.379 16.828 L 5.69 17 C 6.966 17.793 8.448 18.276 10 18.276 C 14.517 18.276 18.276 14.517 18.276 9.931 C 18.276 5.345 14.517 1.724 9.966 1.724 C 5.414 1.724 1.724 5.379 1.724 9.931 C 1.724 11.517 2.172 13.069 3 14.379 L 3.207 14.69 L 2.414 17.586 L 5.379 16.828 Z"/>
    <path style="fill:#FEFEFE;" d="M 7.31 5.31 L 6.655 5.276 C 6.448 5.276 6.241 5.345 6.104 5.483 C 5.793 5.759 5.276 6.276 5.138 6.966 C 4.897 8 5.276 9.242 6.173 10.483 C 7.069 11.724 8.793 13.724 11.828 14.586 C 12.793 14.862 13.552 14.69 14.173 14.311 C 14.655 14 14.966 13.517 15.069 13 L 15.173 12.517 C 15.207 12.379 15.138 12.207 15 12.138 L 12.828 11.138 C 12.69 11.069 12.517 11.104 12.414 11.242 L 11.552 12.345 C 11.483 12.414 11.379 12.448 11.276 12.414 C 10.69 12.207 8.724 11.379 7.655 9.31 C 7.621 9.207 7.621 9.104 7.69 9.035 L 8.517 8.104 C 8.586 8 8.621 7.862 8.586 7.759 L 7.586 5.517 C 7.552 5.414 7.448 5.31 7.31 5.31"/>
    <g transform="matrix(0.039063, 0, 0, 0.039063, 0, 0)"/>
    <g transform="matrix(0.039063, 0, 0, 0.039063, 0, 0)"/>
    <g transform="matrix(0.039063, 0, 0, 0.039063, 0, 0)"/>
    <g transform="matrix(0.039063, 0, 0, 0.039063, 0, 0)"/>
    <g transform="matrix(0.039063, 0, 0, 0.039063, 0, 0)"/>
    <g transform="matrix(0.039063, 0, 0, 0.039063, 0, 0)"/>
    <g transform="matrix(0.039063, 0, 0, 0.039063, 0, 0)"/>
    <g transform="matrix(0.039063, 0, 0, 0.039063, 0, 0)"/>
    <g transform="matrix(0.039063, 0, 0, 0.039063, 0, 0)"/>
    <g transform="matrix(0.039063, 0, 0, 0.039063, 0, 0)"/>
    <g transform="matrix(0.039063, 0, 0, 0.039063, 0, 0)"/>
    <g transform="matrix(0.039063, 0, 0, 0.039063, 0, 0)"/>
    <g transform="matrix(0.039063, 0, 0, 0.039063, 0, 0)"/>
    <g transform="matrix(0.039063, 0, 0, 0.039063, 0, 0)"/>
    <g transform="matrix(0.039063, 0, 0, 0.039063, 0, 0)"/>
  </g>
</svg>