<?xml version="1.0" encoding="utf-8"?>
<svg width="60px" height="36px" fill="none" preserveAspectRatio="xMidYMid slice" xmlns="http://www.w3.org/2000/svg" xmlns:bx="https://boxy-svg.com">
  <path d="M 55 0 L 22.5 0 C 19.75 0 17.5 2.492 17.5 5.538 L 17.5 30.462 C 17.5 31.929 18.026 33.339 18.965 34.377 C 19.901 35.416 21.174 36 22.5 36 L 55 36 C 57.775 36 60 33.535 60 30.462 L 60 5.538 C 60 4.071 59.474 2.661 58.535 1.623 C 57.599 0.584 56.326 0 55 0 Z M 55 10.163 L 38.75 19.385 L 22.5 10.163 L 22.5 5.538 L 38.75 14.705 L 55 5.538 L 55 10.163 Z M 12.5 30.462 C 12.5 30.932 12.575 31.375 12.625 31.846 L 2.5 31.846 C 1.12 31.846 0 30.6 0 29.077 C 0 27.554 1.12 26.308 2.5 26.308 L 12.5 26.308 L 12.5 30.462 Z M 7.5 4.154 L 12.625 4.154 C 12.575 4.625 12.5 5.068 12.5 5.538 L 12.5 9.692 L 7.5 9.692 C 6.125 9.692 5 8.446 5 6.923 C 5 5.4 6.125 4.154 7.5 4.154 Z M 2.5 18 C 2.5 16.477 3.625 15.231 5 15.231 L 12.5 15.231 L 12.5 20.769 L 5 20.769 C 3.625 20.769 2.5 19.523 2.5 18 Z" style="fill: rgb(4, 118, 69);" bx:origin="0.166667 0.277778"/>
</svg>